<?xml version="1.0" encoding="iso-8859-1"?>
<!-- Uploaded to: SVG Repo, www.svgrepo.com, Generator: SVG Repo Mixer Tools -->
<svg fill="#000000" height="22px" width="22px" version="1.1" id="Layer_1" xmlns="http://www.w3.org/2000/svg" xmlns:xlink="http://www.w3.org/1999/xlink" 
	 viewBox="0 0 368.373 368.373" xml:space="preserve">
<g id="XMLID_236_">
	<path id="XMLID_237_" d="M263.373,136.936c-34.488,0-65.144,16.716-84.298,42.469c-7.763-1.628-15.694-2.469-23.702-2.469
		c-8.643,0-17.063,0.965-25.165,2.781c-14.256-13.144-32.943-20.532-52.585-20.532C34.821,159.186,0,194.007,0,236.809
		c0,8.284,6.716,15,15,15h32.602c-4.669,12.5-7.229,26.02-7.229,40.128c0,8.284,6.716,15,15,15h125.596
		c19.246,24.348,49.03,40,82.404,40c57.898,0,105-47.103,105-105S321.271,136.936,263.373,136.936z M32.42,221.809
		c6.298-18.934,24.182-32.623,45.203-32.623c6.617,0,13.052,1.382,18.964,3.95c-12.484,7.456-23.442,17.209-32.29,28.673H32.42z
		 M71.698,276.936c7.106-39.739,41.924-70,83.675-70c2.966,0,5.914,0.165,8.841,0.467c-3.779,10.82-5.841,22.44-5.841,34.533
		c0,12.268,2.122,24.047,6.006,35H71.698z M263.373,316.936c-41.355,0-75-33.645-75-75s33.645-75,75-75c41.355,0,75,33.645,75,75
		S304.728,316.936,263.373,316.936z"/>
	<path id="XMLID_242_" d="M293.373,226.936h-60c-8.284,0-15,6.716-15,15c0,8.284,6.716,15,15,15h60c8.284,0,15-6.716,15-15
		C308.373,233.652,301.657,226.936,293.373,226.936z"/>
	<path id="XMLID_243_" d="M77.623,129.186c9.942,0,19.138-3.247,26.593-8.728c11.383,16.006,30.065,26.478,51.157,26.478
		c34.601,0,62.75-28.149,62.75-62.749c0-34.601-28.149-62.751-62.75-62.751c-21.093,0-39.773,10.472-51.155,26.478
		c-7.457-5.482-16.652-8.729-26.595-8.729c-24.813,0-45,20.188-45,45.001C32.623,108.999,52.81,129.186,77.623,129.186z
		 M155.373,51.437c18.059,0,32.75,14.692,32.75,32.751c0,18.058-14.691,32.749-32.75,32.749s-32.75-14.691-32.75-32.749
		C122.623,66.128,137.314,51.437,155.373,51.437z M77.623,69.186c8.271,0,15,6.729,15,15.001c0,8.271-6.729,14.999-15,14.999
		s-15-6.729-15-14.999C62.623,75.915,69.352,69.186,77.623,69.186z"/>
</g>
</svg>